<?xml version="1.0" encoding="UTF-8" standalone="no"?>
<svg
   xmlns:dc="http://purl.org/dc/elements/1.1/"
   xmlns:cc="http://creativecommons.org/ns#"
   xmlns:rdf="http://www.w3.org/1999/02/22-rdf-syntax-ns#"
   xmlns:svg="http://www.w3.org/2000/svg"
   xmlns="http://www.w3.org/2000/svg"
   xmlns:sodipodi="http://sodipodi.sourceforge.net/DTD/sodipodi-0.dtd"
   xmlns:inkscape="http://www.inkscape.org/namespaces/inkscape"
   sodipodi:docname="logo.svg"
   inkscape:version="1.0 (4035a4fb49, 2020-05-01)"
   id="svg8"
   version="1.1"
   viewBox="0 0 210 190"
   height="190mm"
   width="210mm">
  <defs
     id="defs2" />
  <sodipodi:namedview
     inkscape:window-maximized="1"
     inkscape:window-y="-9"
     inkscape:window-x="-9"
     inkscape:window-height="1001"
     inkscape:window-width="1920"
     showgrid="false"
     inkscape:document-rotation="0"
     inkscape:current-layer="layer1"
     inkscape:document-units="mm"
     inkscape:cy="380.42053"
     inkscape:cx="441.84612"
     inkscape:zoom="0.98994949"
     inkscape:pageshadow="2"
     inkscape:pageopacity="0.0"
     borderopacity="1.0"
     bordercolor="#666666"
     pagecolor="#ffffff"
     id="base" />
  <metadata
     id="metadata5">
    <rdf:RDF>
      <cc:Work
         rdf:about="">
        <dc:format>image/svg+xml</dc:format>
        <dc:type
           rdf:resource="http://purl.org/dc/dcmitype/StillImage" />
        <dc:title />
      </cc:Work>
    </rdf:RDF>
  </metadata>
  <g
     style="display:inline"
     id="layer1"
     inkscape:groupmode="layer"
     inkscape:label="Capa 1">
    <path
       id="path847"
       d="m 71.543907,181.09698 c -0.48584,-0.22068 -1.24903,-0.82845 -1.69598,-1.35061 -1.14679,-1.33976 -1.51667,-2.77986 -1.41556,-5.51133 0.0696,-1.88159 0.17263,-2.3928 0.6985,-3.46766 0.72924,-1.4905 1.77745,-2.28272 3.32984,-2.51665 1.39539,-0.21026 2.66017,0.0828 3.39686,0.78706 l 0.59895,0.57259 v -3.96111 -3.96112 h 1.52458 1.52459 v 9.69202 9.69201 h -1.41569 -1.41569 l -0.0153,-1.03454 c -0.008,-0.569 -0.0819,-0.88753 -0.16335,-0.70785 -0.61132,1.34908 -1.85314,2.18125 -3.24298,2.1732 -0.45398,-0.003 -1.22292,-0.18534 -1.70876,-0.40601 z m 3.28634,-2.4635 c 0.98213,-0.44749 1.4786,-1.75751 1.46947,-3.87745 -0.004,-1.0182 -0.11191,-2.11139 -0.23895,-2.42931 -0.61944,-1.55025 -2.20555,-1.97243 -3.2997,-0.87829 -1.62287,1.62288 -1.27807,6.35372 0.52016,7.13672 0.83698,0.36444 0.85407,0.36497 1.54902,0.0483 z m 32.312713,2.65342 c -1.85463,-0.31362 -3.33956,-1.58685 -3.98032,-3.41285 -1.02136,-2.91061 -0.44251,-6.20315 1.42504,-8.10581 1.0818,-1.10214 2.21103,-1.53658 3.99403,-1.53658 3.34419,0 4.75491,1.57557 5.04285,5.63213 l 0.14064,1.98123 h -3.87131 -3.8713 l 0.13864,0.70785 c 0.16999,0.86792 0.76381,1.70737 1.46139,2.06587 0.85123,0.43746 2.40785,0.3316 3.53814,-0.24062 l 1.01938,-0.51608 0.43322,0.97936 c 0.23827,0.53865 0.43321,1.09576 0.43321,1.23803 0,0.4088 -1.41908,0.97918 -3.00787,1.20898 -1.61704,0.23388 -1.50338,0.23394 -2.89574,-0.002 z m 3.18437,-8.4366 c -0.18806,-1.25424 -0.41553,-1.71076 -1.01125,-2.02958 -1.31984,-0.70636 -3.23904,0.8595 -3.23904,2.6427 0,0.38892 0.1699,0.42142 2.20271,0.42142 h 2.20271 z m 8.61527,8.27599 c -1.53881,-0.78466 -1.64104,-1.12603 -1.71662,-5.7321 l -0.0677,-4.12292 h -0.85799 -0.85799 v -1.41569 -1.41569 h 0.84981 0.84981 l 0.15429,-1.32939 0.15429,-1.32939 1.18009,-0.52189 c 0.64905,-0.28704 1.27531,-0.52189 1.39168,-0.52189 0.12032,0 0.21159,0.79851 0.21159,1.85128 v 1.85128 h 1.52458 1.52459 v 1.41569 1.41569 h -1.52459 -1.52458 v 3.33424 c 0,2.45651 0.0774,3.44017 0.29423,3.73663 0.36582,0.50029 1.48578,0.50241 2.24607,0.004 0.67617,-0.44305 0.7721,-0.35009 1.08852,1.05484 0.29062,1.29043 0.29116,1.28971 -1.32702,1.78067 -1.42016,0.43087 -2.67721,0.41141 -3.59311,-0.0556 z m 10.97104,0.18183 c -1.99498,-0.32771 -3.68792,-1.90763 -4.23965,-3.95659 -0.36985,-1.3735 -0.30523,-3.94759 0.13215,-5.26441 0.47652,-1.43467 2.25517,-3.28442 3.48707,-3.62645 1.316,-0.36539 3.34264,-0.28416 4.35239,0.17444 1.70486,0.77431 2.46413,2.26566 2.64499,5.19528 l 0.12437,2.01463 h -3.87069 -3.87069 l 0.13864,0.70785 c 0.42524,2.17112 2.69371,2.9926 5.01654,1.81664 l 1.03639,-0.52469 0.33098,0.79694 c 0.18204,0.43831 0.42021,0.9655 0.52927,1.17153 0.27784,0.52489 -1.09215,1.19416 -3.01295,1.47189 -1.61176,0.23305 -1.52413,0.23233 -2.79881,0.0229 z m 3.16913,-7.91332 c -0.002,-0.97182 -0.4666,-2.1346 -0.98872,-2.47671 -1.11215,-0.72871 -2.70648,0.11972 -3.15342,1.6781 -0.37442,1.30552 -0.40014,1.28865 1.96538,1.28865 2.11381,0 2.17794,-0.0144 2.17676,-0.49004 z m 10.12041,7.87418 c -1.43676,-0.18069 -2.27948,-0.63659 -3.23055,-1.7477 -0.95763,-1.11878 -1.44369,-2.71334 -1.44369,-4.73615 0,-3.97618 2.36272,-6.56244 5.98944,-6.55613 1.46422,0.003 3.1222,0.49544 3.44984,1.02556 0.10743,0.17383 -0.6029,2.39615 -0.84399,2.64048 -0.043,0.0436 -0.33835,-0.12534 -0.65629,-0.37542 -1.19549,-0.94038 -3.18619,-0.77756 -3.90494,0.31938 -1.03212,1.57523 -0.84861,5.047 0.32902,6.22463 0.50308,0.50308 0.80153,0.61277 1.66729,0.61277 0.64855,0 1.37669,-0.17268 1.89139,-0.44854 0.46028,-0.24669 0.86507,-0.41821 0.89953,-0.38115 0.16216,0.17444 0.76182,1.78787 0.76182,2.04975 0,0.41731 -1.66672,1.23142 -2.83137,1.38298 -0.53905,0.0702 -1.47393,0.0654 -2.0775,-0.0104 z m 10.00941,0.005 c -1.64412,-0.47739 -2.02953,-1.67435 -2.04181,-6.3411 l -0.01,-3.63496 -0.81674,-0.0676 -0.81674,-0.0676 -0.0648,-1.36124 -0.0648,-1.36124 h 0.99048 0.99048 v -1.2966 -1.29659 l 0.96065,-0.42494 c 1.99095,-0.88069 1.87073,-0.95474 1.87073,1.15217 v 1.86596 h 1.64387 1.64388 l -0.0648,1.36124 -0.0648,1.36124 -1.57904,0.064 -1.57903,0.064 0.0217,2.98518 c 0.0242,3.33493 0.12239,3.90246 0.74479,4.30706 0.42624,0.27707 0.82091,0.20322 2.3004,-0.43048 0.27616,-0.11829 0.39973,0.0996 0.6234,1.09906 0.33007,1.47489 0.19451,1.65241 -1.54702,2.0259 -1.256,0.26936 -2.20511,0.26832 -3.14108,-0.003 z m 9.29695,-0.55757 c -2.17833,-1.08551 -3.21539,-3.33888 -3.01499,-6.55111 0.2455,-3.93497 2.20392,-5.90947 5.88499,-5.9333 3.15093,-0.0204 5.11311,1.77114 5.58434,5.09868 0.39472,2.78718 -0.3076,5.26348 -1.88713,6.65384 -1.15207,1.0141 -2.03504,1.30293 -3.98814,1.30459 -1.10714,8.7e-4 -1.68576,-0.12754 -2.57907,-0.5727 z m 4.22003,-2.6002 c 0.87606,-0.94528 1.18263,-3.067 0.74083,-5.12707 -0.32674,-1.52351 -0.97395,-2.15311 -2.21334,-2.15311 -1.65742,0 -2.33474,1.14347 -2.33474,3.94154 0,2.73733 0.73142,3.89919 2.45464,3.89919 0.61526,0 0.96897,-0.14658 1.35261,-0.56054 z m -128.169913,-5.8653 v -8.86393 l 3.64812,0.0787 c 3.57299,0.0771 3.67251,0.0921 4.83272,0.72981 1.50511,0.82726 2.19127,2.00922 2.19127,3.77466 0,1.32185 -0.63834,2.93457 -1.33336,3.36861 -0.47961,0.29953 -0.53425,0.58626 -0.1117,0.58626 0.16353,0 0.56787,0.21282 0.89855,0.47293 1.9371,1.52372 1.88007,5.55356 -0.10219,7.22152 -1.38782,1.16777 -1.99082,1.30526 -6.15749,1.40387 l -3.86592,0.0915 z m 7.11739,5.76752 c 0.6523,-0.41002 0.94114,-1.13432 0.94114,-2.36002 0,-1.69789 -1.09017,-2.42267 -3.64812,-2.42539 l -1.14344,-0.001 v 2.64156 2.64156 l 1.68794,-0.0991 c 0.92836,-0.0545 1.90148,-0.23333 2.16248,-0.39739 z m -0.31813,-8.03612 c 0.6555,-0.73363 0.82302,-2.03652 0.37055,-2.88196 -0.32742,-0.61178 -1.50851,-1.05624 -2.80685,-1.05624 h -1.09599 v 2.4256 2.4256 l 1.46321,-0.11745 c 1.29015,-0.10357 1.53485,-0.19765 2.06908,-0.79555 z m 7.35761,4.77372 v -6.31614 h 1.63349 1.63348 v 6.31614 6.31615 h -1.63348 -1.63349 z m 6.75174,0 v -6.31614 h 1.50544 1.50544 l 0.14128,0.83619 0.14127,0.83618 0.70483,-0.70484 c 0.97601,-0.976 3.01091,-1.49816 3.82664,-0.98192 0.2629,0.16638 0.26891,0.39275 0.0389,1.4668 -0.45099,2.10644 -0.41526,2.04282 -0.99807,1.77728 -0.71507,-0.32581 -1.93388,-0.0527 -2.7212,0.6098 l -0.65981,0.55519 v 4.1188 4.11881 h -1.74238 -1.74239 z m 28.74934,-2.50467 v -8.82082 l 3.10362,0.002 c 4.28058,0.003 6.08808,0.59437 7.7451,2.53291 1.286093,1.50459 1.674663,2.91251 1.674663,6.06775 0,3.92661 -0.802313,5.89813 -3.119523,7.66551 -1.43547,1.09488 -2.70908,1.37312 -6.28532,1.37312 h -3.11854 z m 6.12029,5.74278 c 2.0086,-0.66921 3.10109,-2.7669 3.10433,-5.96058 0.004,-3.78982 -1.45149,-5.71859 -4.48752,-5.94741 l -1.25233,-0.0944 v 6.12452 6.12452 h 0.94759 c 0.52117,0 1.28074,-0.111 1.68793,-0.24666 z m 79.474323,-3.23811 v -6.31614 h 1.52458 1.52459 l 0.002,1.03454 0.002,1.03454 0.56125,-0.71216 c 0.76607,-0.97206 1.71327,-1.41548 3.06541,-1.43502 0.62596,-0.009 1.18555,0.031 1.24354,0.089 0.058,0.058 -0.0505,0.81589 -0.24101,1.68422 l -0.34644,1.57879 -0.71108,-0.1334 c -1.02778,-0.19281 -1.94601,0.0706 -2.69941,0.77438 l -0.65929,0.61587 v 4.05078 4.05078 h -1.63265 -1.63349 v -6.31615 z M 52.498737,164.73733 v -1.74239 h 1.85128 1.85128 v 1.74239 1.74238 h -1.85128 -1.85128 z m -0.44025,-18.59023 -4.46021,-5.08675 -0.0585,4.86896 -0.0585,4.86894 h -1.62939 -1.6294 v -8.91686 c 0,-4.90427 0.0776,-8.96479 0.17234,-9.02338 0.0948,-0.0586 2.22331,2.28786 4.73006,5.2143 2.50675,2.92645 4.56089,5.32089 4.56477,5.32099 0.004,1e-4 -0.0209,-2.30312 -0.0551,-5.11825 l -0.0621,-5.11843 h 1.64116 1.64115 v 9.03861 c 0,4.97124 -0.0756,9.03862 -0.168,9.03862 -0.0924,0 -2.17509,-2.28904 -4.6282,-5.08675 z m 11.58772,4.68693 c -2.22644,-0.79662 -3.50315,-2.74037 -3.69391,-5.62388 -0.12741,-1.92595 0.48644,-4.15262 1.47281,-5.3424 0.99707,-1.20269 2.6858,-1.9468 4.4182,-1.9468 3.34792,0 4.84563,1.6751 5.10717,5.71211 l 0.12556,1.93804 h -3.87093 -3.87092 l 0.13864,0.70785 c 0.16864,0.86105 0.75771,1.69942 1.46139,2.07986 0.75051,0.40575 2.84035,0.19527 3.77081,-0.37978 l 0.7536,-0.46575 0.44977,1.01678 c 0.24737,0.55923 0.44977,1.13926 0.44977,1.28897 0,0.4972 -2.16662,1.23855 -3.90612,1.33655 -1.25019,0.0704 -1.92714,-0.007 -2.80584,-0.32155 z m 3.88059,-8.21402 c 0,-0.96875 -0.511,-1.98371 -1.0915,-2.16796 -1.07509,-0.34122 -2.32683,0.41618 -2.81436,1.70291 -0.4571,1.20642 -0.41001,1.23816 1.83678,1.23816 h 2.06908 z m 7.51403,8.30639 c -1.91119,-0.84944 -2.65449,-3.32894 -1.57128,-5.24149 0.6698,-1.18262 2.31512,-1.99893 4.69737,-2.33055 l 1.81932,-0.25325 -0.12441,-0.76662 c -0.19649,-1.21084 -0.79033,-1.64962 -2.18828,-1.61689 -0.67258,0.0157 -1.63136,0.22484 -2.21519,0.48309 -0.56613,0.25043 -1.05704,0.42763 -1.0909,0.39378 -0.0339,-0.0339 -0.2689,-0.54528 -0.52232,-1.13649 l -0.46077,-1.07492 0.49946,-0.37674 c 0.77758,-0.58653 2.88528,-1.08894 4.54629,-1.08369 1.64993,0.005 3.05865,0.49146 3.78143,1.30522 0.70849,0.79768 0.98729,2.8708 0.99216,7.37779 l 0.005,4.19261 h -1.52458 -1.52459 v -0.80501 -0.80502 l -0.70784,0.68508 c -1.30113,1.25928 -3.02199,1.67018 -4.41041,1.0531 z m 4.15994,-3.04664 c 0.60928,-0.60928 0.74051,-0.90416 0.74051,-1.66395 v -0.92345 l -1.23952,0.12793 c -1.58075,0.16315 -2.33198,0.69842 -2.42013,1.72439 -0.13866,1.61407 1.60187,2.05236 2.91914,0.73508 z m 48.663483,2.97261 c -1.43525,-0.72403 -1.63172,-1.39727 -1.71248,-5.86809 l -0.0716,-3.96268 -0.79961,-0.0666 -0.79961,-0.0666 -0.0648,-1.36123 -0.0648,-1.36124 h 0.99048 0.99048 v -1.29082 -1.29082 l 1.22421,-0.56046 c 1.83262,-0.83901 1.82496,-0.84442 1.82496,1.29082 v 1.85128 h 1.52459 1.52459 v 1.41569 1.41568 h -1.52459 -1.52459 v 3.28129 c 0,1.84537 0.0987,3.46565 0.22546,3.70257 0.28011,0.52338 1.27656,0.55676 2.21004,0.074 0.52879,-0.27345 0.70751,-0.28893 0.84105,-0.0729 0.24309,0.39333 0.47682,2.12188 0.32101,2.37399 -0.20927,0.33861 -2.27657,0.87752 -3.36484,0.87715 -0.54726,-1.8e-4 -1.33471,-0.1717 -1.74989,-0.38114 z m 32.3191,0.1894 c -2.68724,-0.69387 -4.22855,-2.98605 -4.26437,-6.34186 -0.0327,-3.06322 1.34306,-5.48087 3.67492,-6.45805 1.1182,-0.46858 3.80553,-0.37878 4.96428,0.16589 0.53774,0.25277 0.97771,0.53808 0.97771,0.63402 0,0.36582 -0.94337,2.6198 -1.0675,2.55056 -2.05086,-1.14397 -3.26084,-1.23829 -4.0976,-0.3194 -0.77451,0.85052 -0.93324,1.39511 -0.93324,3.20186 0,1.95392 0.33451,3.02624 1.11444,3.57252 0.70756,0.4956 2.31326,0.45473 3.19233,-0.0812 0.39221,-0.23913 0.7893,-0.43479 0.88242,-0.43479 0.0931,0 0.37403,0.48458 0.62426,1.07684 0.4247,1.00525 0.43067,1.09881 0.0897,1.40738 -0.95345,0.86286 -3.68503,1.40642 -5.15735,1.02627 z m 10.2304,-0.11923 c -0.37179,-0.16185 -0.91084,-0.62356 -1.19789,-1.02602 -0.49872,-0.69925 -0.52507,-0.91313 -0.59332,-4.81546 l -0.0714,-4.08372 h -0.85422 -0.85422 v -1.41568 -1.41569 h 0.84579 c 0.94005,0 1.10586,-0.26848 1.11142,-1.79958 0.003,-0.78526 0.0541,-0.84212 1.22796,-1.36124 0.67375,-0.29796 1.31081,-0.54175 1.41569,-0.54175 0.10488,0 0.1907,0.83308 0.1907,1.85129 v 1.85128 h 1.64387 1.64388 l -0.0648,1.36124 -0.0648,1.36123 -1.60525,0.0645 -1.60525,0.0645 0.0898,3.34336 c 0.0631,2.34896 0.17601,3.44722 0.37958,3.6925 0.35629,0.42931 1.46503,0.44063 2.19659,0.0224 0.29947,-0.17119 0.61106,-0.31474 0.6924,-0.31898 0.20969,-0.0109 0.67161,2.33707 0.51093,2.59707 -0.21322,0.34499 -2.28279,0.88074 -3.36639,0.87146 -0.54726,-0.005 -1.2992,-0.14095 -1.671,-0.30279 z m -84.156323,-6.44043 v -6.31614 h 1.52458 1.52459 v 0.95143 0.95144 l 0.92564,-0.92396 c 0.67862,-0.67739 1.1714,-0.96525 1.84655,-1.07868 1.25823,-0.21139 2.28636,0.0278 2.14926,0.50011 -0.0578,0.19907 -0.21966,0.96558 -0.35971,1.70334 l -0.25465,1.34139 -0.64927,-0.22634 c -0.86331,-0.30095 -2.17325,0.0933 -2.89455,0.87121 -0.54071,0.58313 -0.54547,0.62301 -0.54547,4.5653 v 3.97704 h -1.63349 -1.63348 z m 14.810253,-2.50901 v -8.82515 l 4.62821,0.0588 4.62821,0.0588 v 1.30679 1.30679 l -2.99472,0.0606 -2.99473,0.0606 v 1.94667 1.94667 l 2.34133,0.0618 2.34133,0.0618 0.0648,1.36124 0.0648,1.36124 h -2.40617 -2.40617 v 2.61357 2.61358 h 3.26697 3.26697 v 1.41569 1.41568 h -4.90045 -4.90046 z m 11.1077,8.69836 c 0,-0.0794 0.73507,-1.44666 1.63349,-3.0383 0.89841,-1.59164 1.63348,-2.9522 1.63348,-3.02348 0,-0.0713 -0.73507,-1.48183 -1.63348,-3.13457 -0.89842,-1.65275 -1.63349,-3.07343 -1.63349,-3.15707 0,-0.0836 0.81279,-0.15207 1.8062,-0.15207 h 1.8062 l 0.97072,2.17399 c 0.5339,1.1957 1.02057,2.17579 1.08149,2.17798 0.0609,0.002 0.55013,-0.9761 1.08713,-2.17399 l 0.97637,-2.17798 h 1.68979 c 0.92939,0 1.6898,0.0684 1.6898,0.15207 0,0.0836 -0.7363,1.50659 -1.63623,3.16211 l -1.63622,3.01003 1.74512,3.03634 c 0.95982,1.66998 1.74513,3.0893 1.74513,3.15403 0,0.0647 -0.80858,0.11748 -1.79684,0.1172 l -1.79683,-4.3e-4 -1.08899,-2.06613 c -0.59894,-1.13637 -1.13799,-2.0652 -1.19789,-2.06406 -0.0599,0.001 -0.50914,0.90662 -0.99833,2.01218 l -0.88944,2.01011 -1.77859,0.0633 c -0.97822,0.0347 -1.77859,-0.002 -1.77859,-0.0812 z m 23.30439,-6.18935 v -6.31614 h 1.74238 1.74239 v 6.31614 6.31614 h -1.74239 -1.74238 z m 6.96953,0 v -6.31614 h 1.50728 1.50729 l 0.14789,0.67336 0.14789,0.67336 0.57726,-0.5506 c 0.77418,-0.73845 1.65608,-1.04478 3.00821,-1.04492 1.87998,-1.9e-4 3.01487,0.88441 3.53256,2.75348 0.14142,0.5106 0.2418,2.78684 0.24251,5.4994 l 0.001,4.6282 h -1.63349 -1.63348 v -3.80074 c 0,-4.15567 -0.24292,-5.88172 -0.87541,-6.22022 -0.77786,-0.4163 -1.73897,-0.24825 -2.40832,0.4211 l -0.63664,0.63664 v 4.48161 4.48161 h -1.74238 -1.74239 z m -7.18733,-10.01871 v -1.74238 h 1.85128 1.85129 v 1.74238 1.74239 h -1.85129 -1.85128 z m -13.30093,-10.72655 c -0.16246,-0.60192 -0.19738,-1.6683 -0.0998,-3.04917 0.0825,-1.16794 0.10439,-2.12353 0.0486,-2.12353 -0.0557,0 -0.51731,0.68841 -1.02569,1.5298 -1.25548,2.07789 -2.84654,3.76023 -3.36725,3.56041 -0.36755,-0.14104 -0.38576,-0.42696 -0.26754,-4.19981 0.0698,-2.22666 0.23532,-4.86885 0.36789,-5.87153 0.13257,-1.00268 0.19808,-1.866 0.14559,-1.9185 -0.0525,-0.0525 -0.44459,0.47385 -0.87132,1.16966 -0.97596,1.59137 -2.43778,3.18718 -2.80384,3.06084 -0.20623,-0.0712 -0.27002,-0.70614 -0.24502,-2.43903 0.0311,-2.15564 0.40687,-7.03989 0.62077,-8.06862 0.0572,-0.27505 -0.53745,0.18221 -1.61345,1.24072 -1.84672,1.81668 -2.72494,2.24883 -3.21316,1.58114 -0.38186,-0.52222 -0.36636,-2.22114 0.0377,-4.12857 0.1776,-0.83847 0.32291,-1.58397 0.32291,-1.65666 0,-0.0727 -0.67784,-0.19515 -1.50631,-0.27215 -0.82847,-0.077 -1.66155,-0.19956 -1.85128,-0.27237 -0.46697,-0.17919 -0.43702,-1.11991 0.0671,-2.108801 l 0.41212,-0.80834 -0.68436,-0.003 c -0.87697,-0.004 -1.7489,-0.44525 -1.84269,-0.93226 -0.0403,-0.20902 0.37988,-1.06775 0.93363,-1.90829 1.27471,-1.9349 1.36378,-2.1656 0.83605,-2.1656 -0.58293,0 -0.93806,-0.42135 -0.93806,-1.11297 0,-0.65137 1.10091,-1.87287 3.90429,-4.33198 2.19049,-1.9215 4.76139,-4.47442 5.70261,-5.66275 1.05866,-1.3366 1.70298,-2.55349 3.57492,-6.75174 2.7392,-6.14327 4.25211,-8.70045 6.59639,-11.14942 l 1.3951,-1.45742 -0.73129,-0.30612 c -0.84689,-0.35451 -2.22234,-1.801618 -2.73577,-2.878288 -0.21308,-0.44683 -0.60109,-0.82988 -0.97141,-0.95897 -0.64924,-0.22633 -0.89084,-0.63277 -1.27036,-2.13714 -0.21005,-0.83263 -0.31825,-0.94227 -1.15087,-1.16627 -1.65462,-0.44513 -2.08134,-0.77816 -2.40076,-1.87363 l -0.29553,-1.0135 -1.94274,-0.67186 -1.94275,-0.67185 -0.0655,-1.01371 c -0.0539,-0.83425 -0.15032,-1.03507 -0.5445,-1.13435 -0.94909,-0.23904 -2.29254,-1.42888 -2.4397,-2.16075 -0.26045,-1.29532 -0.35468,-1.46642 -0.988,-1.79392 -0.96356,-0.49827 -1.69421,-1.40295 -1.84265,-2.28151 -0.0939,-0.5558 -0.31655,-0.90083 -0.74442,-1.15357 -0.9947,-0.58759 -2.16019,-2.02864 -2.31708,-2.86492 -0.14288,-0.76162 -0.33987,-0.97964 -2.17531,-2.40754 -2.044373,-1.59045 -4.103963,-3.5555 -4.585573,-4.37509 -0.31684,-0.53919 -0.52318,-1.234 -0.52318,-1.76171 0,-0.8341 -0.0606,-0.91028 -1.41668,-1.78095 -1.6393,-1.05251 -2.63243,-2.29711 -2.81262,-3.5248 -0.0697,-0.47467 -0.1828,-1.24631 -0.25142,-1.71476 -0.11379,-0.77687 -0.23342,-0.90608 -1.36123,-1.47014 -1.16558,-0.58294 -1.2402,-0.66837 -1.30118,-1.4896 -0.0605,-0.81432 -0.15069,-0.92095 -1.38223,-1.63348 -0.72465,-0.41927 -1.41153,-0.93751 -1.52641,-1.15167 -0.67452,-1.25742 1.45301,-2.54697 4.20651,-2.54969 4.67562,-0.005 11.175593,2.99117 23.051293,10.62409 4.04459,2.5996 5.79285,3.73967 5.98945,3.90582 0.11979,0.10124 0.60983,0.41728 1.08899,0.70232 0.47915,0.28503 1.26323,0.80122 1.74238,1.14708 0.47916,0.34586 1.9983,1.35921 3.37587,2.25189 1.37757,0.89267 2.66023,1.73112 2.85034,1.86323 0.19012,0.1321 0.88751,0.59759 1.54977,1.03442 1.2697,0.8375 3.83398,2.61183 4.20291,2.90817 0.11979,0.0962 1.19789,0.91424 2.39578,1.81782 2.8123,2.12134 3.47568,2.64248 4.64854,3.65178 1.91091,1.64443 1.78742,1.62494 3.4977,0.55192 0.83117,-0.52147 2.06774,-1.29115 2.74793,-1.71042 1.37559,-0.84789 1.67965,-1.30162 2.04333,-3.04917 1.36861,-6.5764 5.34033,-10.86378 10.68114,-11.53002 1.6787,-0.20941 6.22444,-0.005 7.16513,0.32226 0.38799,0.13496 8.82772,1.7687 9.96253,1.92852 0.48909,0.0689 2.40027,-0.0179 4.24706,-0.19296 9.75678,-0.92458 18.33683,-1.41384 18.55665,-1.05816 0.3089,0.4998 -0.42866,0.79223 -3.78222,1.49958 -1.96675,0.41484 -3.91894,0.85383 -4.3382,0.97553 -0.41926,0.12169 -2.23243,0.52072 -4.02926,0.88672 -4.72285,0.96199 -10.93127,2.55882 -12.21426,3.14154 -2.01514,0.91525 -4.9084,4.94962 -8.02432,11.18913 -0.80066,1.60328 -1.87109,3.51446 -2.37875,4.24706 -1.15497,1.66674 -1.99802,3.12938 -2.21143,3.83666 -0.42725,1.41605 -3.24917,6.953408 -5.00957,9.830118 -0.11979,0.19575 -0.50878,0.83281 -0.86442,1.41569 -0.79725,1.30666 -2.8613,4.46613 -3.11119,4.76235 -0.10105,0.11978 -0.61208,0.85485 -1.13562,1.63348 -0.52354,0.77863 -2.08692,2.54607 -3.47418,3.92764 -3.20012,3.18702 -5.96267,5.16015 -9.60072,6.85724 -0.89842,0.41909 -1.82261,0.87102 -2.05377,1.00428 -0.57019,0.32873 -3.38836,1.27872 -3.79332,1.27872 -0.17922,0 -0.49891,-0.15661 -0.71043,-0.34803 -0.4784,-0.43295 -0.65739,-0.3237 -1.48942,0.90914 -0.60721,0.89972 -0.665,1.14046 -0.66516,2.77123 -4.4e-4,5.14314 -1.05816,11.287371 -3.25043,18.883041 -1.10292,3.82134 -3.55995,11.1714 -4.2748,12.7878 -1.15608,2.61411 -2.06648,3.17026 -2.50855,1.53242 z m -44.249753,-55.810721 -0.0569,-18.406648 16.66155,0.0558 16.661543,0.0558 v 18.295028 18.29503 l -16.604653,0.0558 -16.60466,0.0558 z m -12.79807,18.04238 c -7.33571,-0.38688 -14.55488,-1.0141 -20.90861,-1.81659 -1.85672,-0.23451 -3.81691,-0.47625 -4.35596,-0.5372 -0.53905,-0.061 -2.45022,-0.31056 -4.24706,-0.55468 -7.59344,-1.03164 -13.56936,-1.74645 -20.84611,-2.49353 -2.96035,-0.30392 -5.4350798,-0.55259 -5.4993998,-0.55259 -0.0643,0 -0.11694,-4.88491 -0.11694,-10.85534 V 58.303241 l 2.2360298,-0.68657 c 5.19375,-1.59473 15.11108,-3.87558 20.14271,-4.63255 0.98826,-0.14868 1.79683,-0.33176 1.79683,-0.40686 0,-0.0751 -0.46006,-0.7687 -1.02236,-1.54135 -0.56231,-0.77265 -2.71859,-3.95305 -4.79174,-7.06756 -2.07315,-3.11451 -3.94032,-5.90777 -4.14927,-6.20725 -0.20894,-0.29947 -1.3971,-2.11264 -2.64034,-4.02926 -3.34795,-5.16131 -3.70841,-5.69678 -5.27665,-7.83874 -1.99292,-2.722 -3.39275,-4.22733 -3.89582,-4.18944 -0.48099,0.0362 -1.244,2.19558 -1.9413998,5.49424 l -0.41442,1.96018 -0.0218,-10.83545 -0.0218,-10.8354462 1.3612398,0.004 c 5.89069,0.0161 10.63202,4.0340502 17.98653,15.2421262 1.45416,2.21609 2.74414,4.17628 2.86662,4.35596 0.12249,0.17968 1.05189,1.60082 2.06533,3.15807 1.01345,1.55726 2.01707,3.0764 2.23027,3.37587 0.2132,0.29947 0.79881,1.18155 1.30136,1.96018 0.50255,0.77863 1.09023,1.66071 1.30596,1.96018 0.21573,0.29948 0.88815,1.27957 1.49427,2.17798 2.24292,3.32459 2.58329,3.81385 2.72728,3.92037 0.081,0.0599 0.33106,0.40886 0.55577,0.77547 0.2247,0.36662 1.38864,1.96754 2.58653,3.55759 l 2.17798,2.89101 1.30679,-0.13372 c 4.53426,-0.46398 11.30874,-0.8041 18.36862,-0.92222 l 8.13211,-0.13605 -0.0323,6.73042 c -0.0178,3.70173 -0.0896,11.900398 -0.15961,18.219258 l -0.1273,11.48885 -4.48774,-0.0403 c -2.46825,-0.0222 -5.02678,-0.0687 -5.68562,-0.10347 z m -2.06908,-12.04844 c -6.83379,-0.76808 -12.02276,-2.85175 -17.0929,-6.86375 -0.30181,-0.23882 -1.31761,-1.18589 -2.25734,-2.1046 l -1.7086,-1.67038 -3.62745,0.52536 c -7.45473,1.07965 -14.63963,2.56162 -21.21464,4.37578 -1.14409,0.31568 -1.68187,0.72374 -0.9538,0.72374 1.16892,0 15.08778,1.68128 27.00752,3.26227 5.20224,0.69001 12.52683,1.44497 16.03575,1.65283 1.37757,0.0816 2.54551,0.18521 2.59542,0.23022 0.0499,0.045 0.63797,0.0669 1.30679,0.0486 l 1.21604,-0.0332 z"
       style="fill:#000000;stroke-width:0.217798" />
    <path
       transform="scale(0.26458333)"
       id="path833"
       d="m 462.11755,468.4316 c -0.59319,-1.10841 -1.10379,-6.24993 -1.13466,-11.4256 l -0.0561,-9.41032 -2.21673,2.95375 c -1.2192,1.62457 -4.26405,5.70981 -6.76635,9.0783 -2.50229,3.3685 -5.41372,6.29095 -6.46984,6.49435 -1.85154,0.35657 -1.89669,-0.32949 -1.26189,-19.17983 0.36209,-10.7523 0.94003,-20.79969 1.28431,-22.32754 0.89813,-3.98571 -1.03691,-3.47172 -3.80292,1.01015 -2.83084,4.5869 -8.83413,11.36421 -10.06631,11.36421 -1.20388,0 -1.12449,-10.30856 0.19861,-25.79115 0.60019,-7.02306 0.83447,-13.02597 0.52065,-13.33979 -0.31383,-0.31383 -2.74801,1.46613 -5.40931,3.95546 -2.66129,2.48934 -6.13267,5.37389 -7.71417,6.41014 -2.80875,1.84036 -2.90777,1.83988 -4.26822,-0.0206 -0.76607,-1.04764 -1.39282,-2.87081 -1.39282,-4.05155 0,-2.24022 1.76746,-12.88102 2.63224,-15.8471 0.38506,-1.32071 -0.32116,-1.84071 -3.08678,-2.27284 -1.97234,-0.30819 -5.17706,-0.80822 -7.1216,-1.11118 -2.82051,-0.43945 -3.5283,-1.00125 -3.49974,-2.77792 0.0197,-1.22489 0.68543,-3.3635 1.47943,-4.75246 2.03861,-3.56617 1.88337,-4.04061 -1.32215,-4.04061 -1.56057,0 -3.71589,-0.64237 -4.7896,-1.42749 -1.92136,-1.40492 -1.91708,-1.49675 0.27086,-5.80838 1.22269,-2.40949 3.03708,-5.65329 4.03198,-7.20846 1.77958,-2.78172 1.76971,-2.85728 -0.60838,-4.65899 -1.80333,-1.36626 -2.26321,-2.44406 -1.81063,-4.24349 0.33368,-1.32665 8.13229,-9.61192 17.33027,-18.41172 9.19797,-8.7998 18.15784,-18.08426 19.91082,-20.63213 1.75298,-2.54787 7.39546,-13.6568 12.53886,-24.68652 9.95805,-21.35449 17.57964,-33.86567 25.07999,-41.16997 2.54339,-2.47691 4.62435,-4.81412 4.62435,-5.19379 0,-0.37968 -1.10549,-0.96778 -2.45664,-1.3069 -1.35115,-0.33912 -4.19221,-2.72084 -6.31345,-5.29271 -2.12125,-2.57187 -5.78873,-6.64514 -8.14997,-9.0517 -2.36123,-2.40657 -4.29314,-5.25131 -4.29314,-6.32164 0,-2.97172 -3.0955,-6.04839 -7.57615,-7.5301 -3.23903,-1.07111 -4.4744,-2.23017 -6.22726,-5.84263 -2.04132,-4.20693 -2.66233,-4.65963 -9.34391,-6.81158 -7.02324,-2.26199 -7.15726,-2.36977 -7.15726,-5.75649 0,-2.74969 -0.56901,-3.74559 -2.79892,-4.89872 -4.12542,-2.13333 -8.31276,-6.66908 -8.31276,-9.00443 0,-1.12561 -2.01869,-3.8991 -4.49501,-6.1757 -2.47225,-2.27288 -5.17553,-5.76477 -6.00728,-7.75977 -0.83175,-1.99501 -3.09288,-4.83286 -5.02472,-6.30634 -1.93184,-1.47349 -4.65104,-5.06876 -6.04266,-7.98948 -1.97539,-4.14595 -4.66581,-7.08247 -12.26932,-13.39164 -11.54245,-9.57758 -14.50621,-13.19759 -15.48125,-18.90918 -0.6249,-3.66051 -1.5536,-4.88608 -6.62132,-8.73793 -7.18477,-5.46097 -9.41123,-8.938989 -10.30582,-16.099059 -0.65263,-5.223438 -0.92828,-5.643967 -5.6053,-8.551362 -3.33395,-2.072497 -4.9239,-3.741466 -4.93438,-5.179617 -0.0211,-2.897331 -0.74745,-3.763531 -6.3566,-7.580675 -5.98369,-4.072027 -6.03366,-6.546279 -0.19392,-9.600502 3.23869,-1.693857 5.74469,-2.093787 12.6269,-2.015116 20.249,0.231465 44.28712,12.696751 118.18785,61.287881 35.64281,23.43582 54.84247,37.03082 70.71068,50.0692 4.16688,3.42379 8.258,6.22206 9.09137,6.21837 0.83338,-0.004 6.04489,-2.84419 11.58114,-6.31222 11.05617,-6.92584 10.20683,-5.68582 15.07567,-22.0104 4.46313,-14.96434 13.65194,-26.57022 25.76669,-32.54452 5.94744,-2.93293 7.43436,-3.21873 18.68783,-3.59201 10.61692,-0.35216 14.28723,0.003 27.88362,2.6979 32.5542,6.45254 30.02433,6.21596 49.49748,4.62873 18.37845,-1.498 37.57468,-2.88366 55.30585,-3.9922 6.98191,-0.43651 10.35406,-0.30116 10.35406,0.41556 0,1.4578 -6.41631,3.1695 -36.36549,9.70138 -27.73461,6.04888 -51.4633,12.10986 -55.61079,14.20457 -6.63849,3.35282 -17.12778,18.10196 -29.55722,41.56087 -4.18029,7.8897 -8.93181,16.29922 -10.55894,18.68782 -1.62714,2.38858 -6.80694,12.29784 -11.51067,22.02056 -24.97585,51.6256 -48.83494,80.13636 -80.65075,96.37476 -15.35644,7.83773 -22.61278,10.29836 -25.92254,8.79034 -2.20066,-1.00269 -2.94502,-0.90465 -4.61645,0.60797 -3.46839,3.13887 -4.81635,7.03456 -4.81635,13.91965 0,9.43764 -1.75025,24.18512 -4.64277,39.11972 -5.99821,30.96976 -24.57655,86.87593 -29.38149,88.41512 -0.65687,0.21041 -1.67964,-0.5243 -2.27285,-1.6327 z"
       style="font-variation-settings:normal;opacity:1;vector-effect:none;fill:#0076ff;fill-opacity:1;stroke-width:1.01015;stroke-linecap:butt;stroke-linejoin:miter;stroke-miterlimit:4;stroke-dasharray:none;stroke-dashoffset:0;stroke-opacity:1;stop-color:#000000;stop-opacity:1" />
    <path
       transform="scale(0.26458333)"
       id="path841"
       d="m 238.80545,324.15191 c -29.85688,-1.80837 -59.8873,-4.99839 -125.25891,-13.30581 -17.500895,-2.224 -41.365749,-5.00915 -53.033011,-6.18922 -11.667262,-1.18006 -22.241131,-2.35412 -23.497487,-2.60902 l -2.284284,-0.46346 0.263979,-40.57661 0.263979,-40.5766 6.060915,-1.84043 c 17.521416,-5.32046 58.701699,-14.74609 80.559669,-18.43907 2.08344,-0.35201 3.78807,-0.86137 3.78807,-1.13191 0,-0.86144 -66.795792,-100.743378 -70.5412,-105.482571 -5.619488,-7.110528 -10.56211,-12.12183 -11.955701,-12.12183 -1.830564,0 -3.460063,3.41786 -6.020003,12.626907 l -2.246427,8.081224 -0.0752,-36.618034 -0.0752,-36.618029 h 4.944358 c 11.987839,0 25.008544,6.744989 37.203882,19.272366 11.048864,11.349688 17.169448,19.80619 49.293131,68.105827 27.0729,40.70552 47.39444,69.8798 51.96009,74.5956 1.68447,1.73987 2.64166,1.78982 14.30724,0.74665 16.32582,-1.4599 55.77666,-3.06908 75.88908,-3.09547 l 15.9099,-0.0209 -0.002,37.1231 c -9.7e-4,20.41771 -0.30161,51.1011 -0.66809,68.1853 l -0.66606,31.06219 -19.28243,-0.18686 c -10.60534,-0.10277 -21.78256,-0.33829 -24.83827,-0.52337 z m 3.53554,-44.28601 c -0.55559,-0.21452 -5.33396,-1.07114 -10.61862,-1.9036 -26.31014,-4.1445 -46.34291,-13.7802 -65.49093,-31.50097 l -8.42934,-7.80102 -15.81432,2.30896 c -19.03891,2.77976 -50.702052,9.05264 -67.332115,13.33936 -18.680662,4.8153 -20.118263,6.25176 -7.323606,7.31778 4.583567,0.38189 33.335031,3.83076 63.892151,7.66415 47.18635,5.91953 65.67269,7.97264 93.94418,10.43353 5.76452,0.50178 18.37457,0.6059 17.1726,0.14181 z"
       style="font-variation-settings:normal;opacity:1;vector-effect:none;fill:#ffd215;fill-opacity:1;stroke-width:1.01015;stroke-linecap:butt;stroke-linejoin:miter;stroke-miterlimit:4;stroke-dasharray:none;stroke-dashoffset:0;stroke-opacity:1;stop-color:#000000;stop-opacity:1" />
    <path
       transform="scale(0.26458333)"
       id="path843"
       d="M 294.36384,256.67685 V 187.4814 h 46.81149 c 25.74632,0 53.70229,0.29825 62.12438,0.66279 l 15.3129,0.66279 v 68.53266 68.53265 h -62.12439 -62.12438 z"
       style="font-variation-settings:normal;opacity:1;vector-effect:none;fill:#0372c3;fill-opacity:1;stroke-width:1.01015;stroke-linecap:butt;stroke-linejoin:miter;stroke-miterlimit:4;stroke-dasharray:none;stroke-dashoffset:0;stroke-opacity:1;stop-color:#000000;stop-opacity:1" />
    <path
       transform="scale(0.26458333)"
       id="path845"
       d="m 462.55286,468.05127 c -0.24369,-0.69448 -0.79763,-5.71128 -1.23099,-11.14843 l -0.78793,-9.88574 -6.82998,9.12812 c -3.75648,5.02047 -7.25059,9.12813 -7.76468,9.12813 -1.44928,0 -1.62585,-5.07921 -0.85909,-24.71349 0.38978,-9.98111 0.45151,-18.39063 0.13718,-18.68782 -0.31434,-0.29718 -1.99695,1.25389 -3.73915,3.44682 -1.7422,2.19294 -4.68119,5.60221 -6.53107,7.57615 l -3.36345,3.58899 0.61211,-19.44544 c 0.38436,-12.21006 0.25032,-19.44543 -0.36023,-19.44543 -0.53478,0 -3.84237,2.50841 -7.35019,5.57424 -3.50782,3.06584 -7.05971,5.44387 -7.89309,5.28451 -1.57844,-0.30182 -1.90161,-6.28114 -0.93891,-17.37197 l 0.43384,-4.99797 -6.06092,-1.06413 c -5.87056,-1.03071 -6.05673,-1.15927 -5.92753,-4.0934 0.0734,-1.66609 0.4597,-4.02293 0.85851,-5.2374 0.63633,-1.93774 0.26994,-2.29353 -2.99195,-2.90547 -2.0444,-0.38353 -3.9507,-1.30612 -4.23623,-2.05021 -0.28553,-0.74408 0.88718,-3.94938 2.60603,-7.1229 3.46248,-6.39278 3.88113,-8.94563 1.60995,-9.81717 -3.75624,-1.4414 -1.05915,-5.12376 17.08387,-23.32474 l 18.59909,-18.65852 11.27952,-23.01989 c 11.85944,-24.20344 19.34357,-36.54019 26.1925,-43.17541 4.85504,-4.70355 5.08315,-6.06235 1.34377,-8.00421 -3.52341,-1.82969 -16.29249,-16.25217 -17.9936,-20.3235 -1.47795,-3.53723 -3.73391,-5.71546 -7.97341,-7.69864 -1.64233,-0.76825 -4.20834,-3.2151 -5.70226,-5.43744 -2.092,-3.11202 -4.19151,-4.63875 -9.13579,-6.64334 -5.28351,-2.14213 -6.6032,-3.15712 -7.45719,-5.73544 -0.57069,-1.723 -3.15897,-5.00001 -5.75173,-7.28225 -2.59276,-2.28224 -5.01629,-5.1561 -5.38562,-6.38638 -0.36934,-1.23027 -2.14804,-3.82785 -3.95267,-5.77239 -1.80464,-1.94455 -4.67156,-5.60724 -6.37095,-8.13933 -1.69939,-2.53208 -3.88367,-5.25949 -4.85394,-6.06091 -0.97028,-0.80142 -3.70633,-4.48374 -6.08011,-8.18294 -2.80174,-4.3661 -7.53087,-9.48892 -13.4793,-14.60143 -9.88394,-8.49496 -13.62247,-13.1581 -14.69412,-18.32828 -0.4818,-2.32446 -2.56775,-4.95598 -7.10749,-8.96642 -6.48091,-5.72529 -9.57327,-10.951305 -9.57327,-16.178576 0,-1.873748 -1.60547,-4.177844 -5.55584,-7.973524 -3.05571,-2.936048 -5.55584,-6.050573 -5.55584,-6.921165 0,-0.870592 -2.27285,-3.27973 -5.05076,-5.353639 -2.77792,-2.073909 -5.05077,-4.542301 -5.05077,-5.485315 0,-1.038543 1.8349,-2.602828 4.65373,-3.967404 4.07671,-1.973499 5.69366,-2.179444 13.04076,-1.660951 21.84671,1.541745 49.23293,16.341539 129.28271,69.865714 26.99063,18.04691 39.20193,26.76591 59.43521,42.43737 3.24342,2.51216 6.82377,4.56756 7.95633,4.56756 2.66566,0 18.53428,-9.72574 21.01567,-12.88032 1.04921,-1.33386 3.34899,-6.94339 5.11064,-12.46563 5.59025,-17.52385 13.95753,-28.48388 26.57349,-34.80776 6.87952,-3.44844 7.09787,-3.4859 20.32101,-3.4859 11.08545,0 16.44991,0.5958 31.43155,3.49092 9.93562,1.92 20.33762,3.77187 23.11554,4.11526 2.77792,0.3434 17.09683,-0.31064 31.8198,-1.45341 35.05357,-2.72079 53.47624,-3.53528 51.51778,-2.27766 -0.83337,0.53514 -9.92474,2.87264 -20.20305,5.19444 -29.52387,6.66923 -63.34216,15.07146 -67.73359,16.82856 -6.26209,2.50559 -14.82905,13.34219 -25.44465,32.18566 -2.50393,4.44467 -8.64332,15.35432 -13.64306,24.24366 -4.99975,8.88935 -13.23604,24.34468 -18.30289,34.34519 -15.39517,30.3857 -27.2505,47.84147 -43.56478,64.14469 -11.2869,11.27925 -20.79713,18.04225 -35.9504,25.56537 -13.54849,6.72639 -17.12386,7.91626 -22.68872,7.5507 -3.92595,-0.25789 -4.5778,0.0388 -6.60813,3.00757 -1.78625,2.61186 -2.38872,5.33025 -2.91047,13.13198 -2.11547,31.63317 -10.66903,68.79218 -24.18489,105.06574 -6.82813,18.32521 -9.74942,23.32327 -11.20591,19.17234 z"
       style="font-variation-settings:normal;opacity:1;vector-effect:none;fill:#00a0c6;fill-opacity:1;stroke-width:1.01015;stroke-linecap:butt;stroke-linejoin:miter;stroke-miterlimit:4;stroke-dasharray:none;stroke-dashoffset:0;stroke-opacity:1;stop-color:#000000;stop-opacity:1" />
    <path
       transform="scale(0.26458333)"
       id="path850"
       d="m 168.09478,536.4891 c 0,-18.05648 0.18822,-32.82996 0.41827,-32.82996 0.23005,0 7.80633,8.52316 16.83618,18.94036 9.02986,10.4172 16.79658,19.09189 17.2594,19.27708 0.46282,0.1852 0.84148,-8.33797 0.84148,-18.94036 v -19.27708 h 5.55584 5.55584 l -0.071,31.06219 c -0.0391,17.08421 -0.41212,31.93239 -0.82906,32.99596 -0.63417,1.61773 -3.36453,-1.02368 -16.70667,-16.16244 -8.77173,-9.95291 -16.3536,-18.24773 -16.8486,-18.43292 -0.50581,-0.18924 -0.90001,7.66415 -0.90001,17.9302 v 18.26693 h -5.55584 -5.55583 z"
       style="font-variation-settings:normal;opacity:1;vector-effect:none;fill:#c60000;fill-opacity:1;stroke-width:1.01015;stroke-linecap:butt;stroke-linejoin:miter;stroke-miterlimit:4;stroke-dasharray:none;stroke-dashoffset:0;stroke-opacity:1;stop-color:#000000;stop-opacity:1" />
    <path
       transform="scale(0.26458333)"
       id="path852"
       d="m 242.5469,569.8849 c -9.64085,-2.56173 -15.17827,-11.11095 -15.18557,-23.44499 -0.008,-13.79273 7.49032,-23.21334 19.38688,-24.35644 13.36874,-1.28457 19.23127,4.78753 20.97926,21.72924 l 0.6514,6.31345 h -14.89622 -14.89621 l 0.66017,2.77792 c 1.01731,4.28074 3.98232,7.71802 7.53699,8.73748 2.98805,0.85697 6.65222,0.34949 13.88476,-1.92299 1.83316,-0.57598 2.35436,-0.10628 3.40095,3.06492 1.40946,4.27071 0.91589,4.89829 -5.06081,6.43499 -6.79547,1.74721 -11.65391,1.9439 -16.4616,0.66642 z m 13.00708,-32.10672 c -0.94701,-5.92224 -3.20781,-8.18574 -7.48302,-7.49197 -1.86168,0.30211 -4.09657,1.1395 -4.96643,1.86086 -2.02133,1.67626 -4.54789,7.6679 -3.76652,8.93218 0.32826,0.53113 4.26465,0.96569 8.74754,0.96569 h 8.15071 z"
       style="font-variation-settings:normal;opacity:1;vector-effect:none;fill:#c60000;fill-opacity:1;stroke-width:1.01015;stroke-linecap:butt;stroke-linejoin:miter;stroke-miterlimit:4;stroke-dasharray:none;stroke-dashoffset:0;stroke-opacity:1;stop-color:#000000;stop-opacity:1" />
    <path
       transform="scale(0.26458333)"
       id="path854"
       d="m 284.33412,569.5978 c -5.03522,-2.6079 -7.64795,-6.67169 -7.64795,-11.8955 0,-8.14901 5.80614,-13.02374 17.93824,-15.06063 6.36272,-1.06826 7.35862,-1.52365 7.64603,-3.49627 0.46393,-3.18421 -2.27102,-6.91432 -5.59953,-7.637 -1.54668,-0.33581 -5.44809,0.0793 -8.66981,0.92238 -3.22171,0.84312 -6.05109,1.53294 -6.28751,1.53294 -0.23642,0 -1.17978,-1.45021 -2.09637,-3.2227 -1.60236,-3.09862 -1.58269,-3.29057 0.51069,-4.98569 5.0337,-4.07605 21.55484,-4.95889 26.92701,-1.4389 5.49217,3.59861 5.96985,5.55749 6.34391,26.01564 l 0.34716,18.98699 h -5.14539 c -5.04113,0 -5.14538,-0.0613 -5.14538,-3.02379 v -3.02378 l -4.62306,3.52886 c -2.54269,1.94087 -5.15646,3.53507 -5.80838,3.54265 -0.65193,0.008 -2.09446,0.24667 -3.20562,0.53129 -1.11117,0.28461 -3.57899,-0.2898 -5.48404,-1.27649 z m 15.15819,-10.30256 c 2.1629,-2.1629 2.95275,-3.91929 2.95275,-6.56599 0,-3.42534 -0.17602,-3.61324 -3.38479,-3.61324 -7.64392,0 -11.97359,3.62094 -10.87082,9.09137 0.99748,4.94814 6.87672,5.514 11.30286,1.08786 z"
       style="font-variation-settings:normal;opacity:1;vector-effect:none;fill:#c60000;fill-opacity:1;stroke-width:1.01015;stroke-linecap:butt;stroke-linejoin:miter;stroke-miterlimit:4;stroke-dasharray:none;stroke-dashoffset:0;stroke-opacity:1;stop-color:#000000;stop-opacity:1" />
    <path
       transform="scale(0.26458333)"
       id="path856"
       d="m 326.68872,546.08555 v -23.23351 h 5.05077 5.05076 v 3.53554 c 0,1.94454 0.3654,3.53553 0.81199,3.53553 0.4466,0 2.34946,-1.58626 4.22859,-3.52503 3.46379,-3.57372 8.31375,-5.26299 11.86986,-4.13432 1.76435,0.55998 1.84575,1.09947 0.92907,6.15686 l -1.00472,5.5431 h -4.95957 c -4.13475,0 -5.45062,0.49106 -7.91231,2.95275 l -2.95276,2.95276 v 14.72491 14.72492 h -5.55584 -5.55584 z"
       style="font-variation-settings:normal;opacity:1;vector-effect:none;fill:#c60000;fill-opacity:1;stroke-width:1.01015;stroke-linecap:butt;stroke-linejoin:miter;stroke-miterlimit:4;stroke-dasharray:none;stroke-dashoffset:0;stroke-opacity:1;stop-color:#000000;stop-opacity:1" />
    <path
       transform="scale(0.26458333)"
       id="path858"
       d="m 382.24711,536.4891 v -32.82996 h 17.1726 17.17259 v 4.40179 4.40178 l -6.20909,0.64898 c -3.41501,0.35694 -8.64255,0.64898 -11.61676,0.64898 h -5.40766 v 7.4689 7.46891 l 9.09138,0.71955 9.09137,0.71956 v 4.43845 4.43844 h -9.09137 -9.09138 v 10.10153 10.10152 h 12.62691 12.62691 v 5.05077 5.05076 h -18.18275 -18.18275 z"
       style="font-variation-settings:normal;opacity:1;vector-effect:none;fill:#c60000;fill-opacity:1;stroke-width:1.01015;stroke-linecap:butt;stroke-linejoin:miter;stroke-miterlimit:4;stroke-dasharray:none;stroke-dashoffset:0;stroke-opacity:1;stop-color:#000000;stop-opacity:1" />
    <path
       transform="scale(0.26458333)"
       id="path860"
       d="m 428.85959,561.49038 c 2.38017,-4.30578 5.21636,-9.44631 6.30264,-11.42339 l 1.97505,-3.59471 -6.2997,-11.81012 -6.2997,-11.81012 6.38128,0.0133 6.38127,0.0133 3.75038,8.1508 c 2.06271,4.48294 4.16207,7.89637 4.66524,7.58539 0.50317,-0.31098 2.45205,-3.98434 4.33084,-8.16303 l 3.41598,-7.59761 5.89792,-10e-4 5.89791,-0.001 -6.19796,11.69947 -6.19797,11.69947 4.75327,8.25105 c 2.61429,4.53807 5.62744,9.72838 6.69589,11.53403 l 1.94262,3.283 -6.39584,-0.0109 -6.39584,-0.0109 -3.97203,-7.56525 c -2.18462,-4.16089 -4.3734,-7.56525 -4.86396,-7.56525 -0.49055,0 -2.46709,3.40926 -4.39231,7.57614 l -3.5004,7.57615 h -6.10108 -6.10108 z"
       style="font-variation-settings:normal;opacity:1;vector-effect:none;fill:#c60000;fill-opacity:1;stroke-width:1.01015;stroke-linecap:butt;stroke-linejoin:miter;stroke-miterlimit:4;stroke-dasharray:none;stroke-dashoffset:0;stroke-opacity:1;stop-color:#000000;stop-opacity:1" />
    <path
       transform="scale(0.26458333)"
       id="path862"
       d="m 484.6013,569.91228 c -5.84666,-2.62862 -6.69504,-5.19327 -7.33124,-22.16237 l -0.57368,-15.30142 -2.77792,-0.31963 c -2.30634,-0.26538 -2.77792,-0.80868 -2.77792,-3.20038 0,-1.58441 -0.27592,-3.59978 -0.61315,-4.47859 -0.49778,-1.29719 0.16749,-1.59785 3.53553,-1.59785 h 4.14869 v -5.08666 c 0,-5.08016 0.006,-5.0892 4.62943,-7.07107 2.54619,-1.09142 4.81903,-1.9844 5.05076,-1.9844 0.23173,0 0.42133,3.18198 0.42133,7.07106 v 7.07107 h 6.06092 6.06091 v 4.54569 4.54568 h -6.06091 -6.06092 l 0.11952,11.36422 c 0.16475,15.66571 0.60437,17.34762 4.63645,17.73819 1.77755,0.17218 4.16634,-0.18704 5.30843,-0.79826 1.79115,-0.9586 2.21404,-0.74965 3.07713,1.52046 1.75486,4.61562 1.23579,6.30835 -2.28239,7.44311 -6.03111,1.94529 -11.24562,2.19621 -14.57097,0.70115 z"
       style="font-variation-settings:normal;opacity:1;vector-effect:none;fill:#c60000;fill-opacity:1;stroke-width:1.01015;stroke-linecap:butt;stroke-linejoin:miter;stroke-miterlimit:4;stroke-dasharray:none;stroke-dashoffset:0;stroke-opacity:1;stop-color:#000000;stop-opacity:1" />
    <path
       transform="scale(0.26458333)"
       id="path864"
       d="m 512.55679,546.08555 v -23.23351 h 6.06092 6.06091 v 23.23351 23.23351 h -6.06091 -6.06092 z"
       style="font-variation-settings:normal;opacity:1;vector-effect:none;fill:#c60000;fill-opacity:1;stroke-width:1.01015;stroke-linecap:butt;stroke-linejoin:miter;stroke-miterlimit:4;stroke-dasharray:none;stroke-dashoffset:0;stroke-opacity:1;stop-color:#000000;stop-opacity:1" />
    <path
       transform="scale(0.26458333)"
       id="path866"
       d="m 511.54664,508.20483 v -6.56599 h 6.56599 6.56599 v 6.56599 6.56599 h -6.56599 -6.56599 z"
       style="font-variation-settings:normal;opacity:1;vector-effect:none;fill:#c60000;fill-opacity:1;stroke-width:1.01015;stroke-linecap:butt;stroke-linejoin:miter;stroke-miterlimit:4;stroke-dasharray:none;stroke-dashoffset:0;stroke-opacity:1;stop-color:#000000;stop-opacity:1" />
    <path
       transform="scale(0.26458333)"
       id="path868"
       d="m 538.82076,546.08555 v -23.23351 h 5.55584 c 5.25279,0 5.55584,0.13775 5.55584,2.52538 0,2.92093 1.18038,3.23988 3.15931,0.85368 3.26272,-3.93422 12.29937,-5.58707 17.52609,-3.20561 1.42875,0.65098 3.60934,2.81018 4.84576,4.79822 2.07599,3.33801 2.2746,5.0641 2.59519,22.55499 l 0.34716,18.94036 h -5.501 -5.50101 l -0.55121,-16.68713 c -0.63398,-19.19314 -1.46662,-21.69867 -7.2109,-21.69867 -1.88586,0 -4.55084,0.92412 -6.03763,2.09362 l -2.66161,2.09363 v 17.09927 17.09928 h -6.06092 -6.06091 z"
       style="font-variation-settings:normal;opacity:1;vector-effect:none;fill:#c60000;fill-opacity:1;stroke-width:1.01015;stroke-linecap:butt;stroke-linejoin:miter;stroke-miterlimit:4;stroke-dasharray:none;stroke-dashoffset:0;stroke-opacity:1;stop-color:#000000;stop-opacity:1" />
    <path
       transform="scale(0.26458333)"
       id="path870"
       d="m 600.94514,568.43952 c -7.56597,-4.69904 -10.71884,-11.12574 -10.71884,-21.84889 0,-8.53021 1.76876,-13.59755 6.47689,-18.55574 4.16278,-4.38388 8.48494,-6.193 14.79567,-6.193 5.21268,0 13.18487,2.52908 13.18487,4.18274 0,2.52078 -3.12633,8.06547 -4.27878,7.58862 -8.77591,-3.63121 -12.97443,-3.20091 -16.00445,1.64027 -1.71489,2.73995 -1.99005,4.64381 -1.73643,12.01467 0.26321,7.6495 0.61153,9.08875 2.7503,11.36421 2.88455,3.0689 8.88183,3.5323 13.6351,1.05356 2.36551,-1.23358 3.11991,-1.28252 3.797,-0.24632 1.66377,2.54622 2.0417,5.89054 0.83057,7.34986 -3.11605,3.75462 -17.64522,4.80923 -22.7319,1.65002 z"
       style="font-variation-settings:normal;opacity:1;vector-effect:none;fill:#c60000;fill-opacity:1;stroke-width:1.01015;stroke-linecap:butt;stroke-linejoin:miter;stroke-miterlimit:4;stroke-dasharray:none;stroke-dashoffset:0;stroke-opacity:1;stop-color:#000000;stop-opacity:1" />
    <path
       transform="scale(0.26458333)"
       id="path872"
       d="m 646.28862,570.68713 c -1.17353,-0.25408 -3.44638,-1.83122 -5.05076,-3.50475 l -2.91707,-3.04278 -0.34129,-16.09809 -0.34129,-16.0981 h -3.44678 c -3.41165,0 -3.44679,-0.0463 -3.44679,-4.54568 0,-4.3856 0.10761,-4.54569 3.05546,-4.54569 3.28502,0 5.02576,-2.66398 5.02576,-7.69129 0,-1.97625 0.91161,-2.91795 4.29315,-4.43486 l 4.29315,-1.92586 0.29679,7.02601 0.29679,7.026 h 6.27648 6.27648 l -0.36153,4.54569 -0.36154,4.54568 -4.69651,0.0155 c -7.60267,0.025 -7.62157,0.0647 -6.79096,14.26505 0.4009,6.85403 1.20546,13.03609 1.78791,13.73789 1.26804,1.5279 6.25894,1.67548 8.89795,0.26313 2.20058,-1.17771 2.52881,-0.7747 3.42702,4.20788 0.63255,3.50892 0.49589,3.75528 -2.64525,4.76864 -4.22157,1.36192 -10.77457,2.08162 -13.52717,1.48566 z"
       style="font-variation-settings:normal;opacity:1;vector-effect:none;fill:#c60000;fill-opacity:1;stroke-width:1.01015;stroke-linecap:butt;stroke-linejoin:miter;stroke-miterlimit:4;stroke-dasharray:none;stroke-dashoffset:0;stroke-opacity:1;stop-color:#000000;stop-opacity:1" />
    <path
       transform="scale(0.26458333)"
       id="path874"
       d="m 145.87142,650.76645 v -33.21934 l 13.38452,0.73399 c 14.60648,0.801 17.98657,1.76471 22.30436,6.35922 4.93133,5.24738 4.93405,15.60618 0.006,21.46326 -1.43599,1.70657 -2.44068,3.22124 -2.23265,3.36593 0.20803,0.14468 1.61884,1.0389 3.13513,1.98715 3.8605,2.41425 6.11801,7.3394 6.11801,13.34748 0,5.79684 -1.20623,8.65436 -5.62397,13.32297 -3.83782,4.05575 -9.11394,5.2251 -25.22177,5.58988 l -11.86929,0.26879 z m 26.76904,22.31423 c 3.00659,-1.53061 3.50307,-2.73166 3.52007,-8.51539 0.0228,-7.76597 -3.58031,-10.39342 -14.25294,-10.39342 h -3.91434 v 10.65676 10.65677 l 6.31345,-0.68811 c 3.4724,-0.37846 7.22259,-1.15093 8.33376,-1.71661 z m -0.83899,-30.42666 c 2.52133,-2.93121 3.1379,-8.36385 1.33218,-11.73787 -1.12473,-2.10158 -6.74622,-4.00399 -11.8574,-4.01276 l -3.283,-0.006 v 9.72154 9.72154 l 5.727,-0.47493 c 4.64386,-0.38511 6.17224,-0.99256 8.08122,-3.21188 z"
       style="font-variation-settings:normal;opacity:1;vector-effect:none;fill:#c60000;fill-opacity:1;stroke-width:1.01015;stroke-linecap:butt;stroke-linejoin:miter;stroke-miterlimit:4;stroke-dasharray:none;stroke-dashoffset:0;stroke-opacity:1;stop-color:#000000;stop-opacity:1" />
    <path
       transform="scale(0.26458333)"
       id="path876"
       d="m 199.4095,660.23279 v -23.23351 h 6.06092 6.06091 v 23.23351 23.23351 h -6.06091 -6.06092 z"
       style="font-variation-settings:normal;opacity:1;vector-effect:none;fill:#c60000;fill-opacity:1;stroke-width:1.01015;stroke-linecap:butt;stroke-linejoin:miter;stroke-miterlimit:4;stroke-dasharray:none;stroke-dashoffset:0;stroke-opacity:1;stop-color:#000000;stop-opacity:1" />
    <path
       transform="scale(0.26458333)"
       id="path878"
       d="m 199.4095,622.85714 v -6.06091 h 6.06092 6.06091 v 6.06091 6.06092 h -6.06091 -6.06092 z"
       style="font-variation-settings:normal;opacity:1;vector-effect:none;fill:#c60000;fill-opacity:1;stroke-width:1.01015;stroke-linecap:butt;stroke-linejoin:miter;stroke-miterlimit:4;stroke-dasharray:none;stroke-dashoffset:0;stroke-opacity:1;stop-color:#000000;stop-opacity:1" />
    <path
       transform="scale(0.26458333)"
       id="path880"
       d="m 225.67347,660.23279 v -23.23351 h 5.05076 c 4.13093,0 5.05358,0.32194 5.06623,1.76777 0.008,0.97227 0.4224,2.41062 0.91975,3.19632 0.73958,1.16838 1.48097,0.94331 4.07066,-1.23578 4.14026,-3.48379 10.56487,-5.4769 12.49387,-3.87597 1.11055,0.92167 1.19425,2.21081 0.40328,6.2112 l -0.99814,5.04814 -4.1593,0.004 c -2.36243,0.002 -5.57758,0.86853 -7.44228,2.00546 l -3.283,2.00172 v 15.67221 15.67222 h -6.06091 -6.06092 z"
       style="font-variation-settings:normal;opacity:1;vector-effect:none;fill:#c60000;fill-opacity:1;stroke-width:1.01015;stroke-linecap:butt;stroke-linejoin:miter;stroke-miterlimit:4;stroke-dasharray:none;stroke-dashoffset:0;stroke-opacity:1;stop-color:#000000;stop-opacity:1" />
    <path
       transform="scale(0.26458333)"
       id="path882"
       d="m 270.02653,683.13533 c -2.92398,-1.54426 -5.49216,-4.03071 -7.48249,-7.24439 -2.84305,-4.59052 -3.03046,-5.52272 -3.03046,-15.07386 0,-12.17075 2.30131,-18.22531 8.34773,-21.96221 5.09209,-3.14708 13.08641,-3.18771 17.28292,-0.0878 1.69229,1.25006 3.32258,2.27284 3.62287,2.27284 0.30029,0 0.54598,-6.59125 0.54598,-14.64721 v -14.64721 h 5.55584 5.55584 v 35.86041 35.86042 H 295.374 c -4.93853,0 -5.05077,-0.0674 -5.05077,-3.03046 0,-3.69446 -0.62793,-3.78883 -3.2268,-0.4849 -2.4334,3.09356 -6.93374,5.53566 -10.20121,5.53566 -1.32917,0 -4.42008,-1.05807 -6.86869,-2.35127 z m 14.69149,-9.01295 c 3.14576,-2.76197 4.60833,-9.61014 3.84659,-18.0108 -0.58361,-6.43612 -2.61863,-9.55986 -6.93346,-10.64282 -6.12275,-1.53671 -10.7768,4.81867 -10.8117,14.76403 -0.0466,13.28284 6.79845,20.12349 13.89857,13.88959 z"
       style="font-variation-settings:normal;opacity:1;vector-effect:none;fill:#c60000;fill-opacity:1;stroke-width:1.01015;stroke-linecap:butt;stroke-linejoin:miter;stroke-miterlimit:4;stroke-dasharray:none;stroke-dashoffset:0;stroke-opacity:1;stop-color:#000000;stop-opacity:1" />
    <path
       transform="scale(0.26458333)"
       id="path884"
       d="M 333.75979,650.48045 V 617.4946 l 12.40909,0.62893 c 18.38025,0.93155 25.02254,3.98519 30.61201,14.07315 2.80777,5.0675 2.94084,5.87905 2.94084,17.93458 0,11.78783 -0.18815,13.01006 -2.83141,18.39277 -3.07007,6.25185 -8.6156,11.36569 -14.66991,13.52793 -2.2622,0.80792 -8.54472,1.34298 -16.08625,1.37 l -12.37437,0.0443 z m 22.28078,22.88508 c 8.07319,-2.24274 12.41373,-10.40804 12.40257,-23.33142 -0.0128,-14.77976 -4.86187,-21.33427 -16.82344,-22.74012 l -5.73808,-0.6744 v 23.87767 23.87766 l 3.283,-0.006 c 1.80565,-0.003 4.89983,-0.45479 6.87595,-1.00376 z"
       style="font-variation-settings:normal;opacity:1;vector-effect:none;fill:#c60000;fill-opacity:1;stroke-width:1.01015;stroke-linecap:butt;stroke-linejoin:miter;stroke-miterlimit:4;stroke-dasharray:none;stroke-dashoffset:0;stroke-opacity:1;stop-color:#000000;stop-opacity:1" />
    <path
       transform="scale(0.26458333)"
       id="path886"
       d="m 404.97555,684.58418 c -8.69174,-2.23686 -13.70912,-7.69869 -15.72028,-17.11283 -1.86673,-8.73806 0.27525,-17.87654 5.70168,-24.32549 7.1168,-8.45784 21.41704,-9.33232 28.39309,-1.73628 3.47368,3.7824 4.85976,7.9328 5.6959,17.05544 l 0.53237,5.80838 h -14.70049 -14.7005 l 0.62884,3.28299 c 0.34586,1.80565 2.00084,4.53306 3.67774,6.06092 2.44436,2.2271 3.99715,2.77082 7.83119,2.74212 2.63026,-0.0197 5.91871,-0.68543 7.30767,-1.47943 1.38896,-0.794 2.8895,-1.45975 3.33454,-1.47943 0.67615,-0.0299 3.73653,6.02955 3.73653,7.39822 0,0.23531 -1.71279,1.11316 -3.80619,1.95077 -4.79522,1.91867 -13.94432,2.85575 -17.91209,1.83462 z m 12.6269,-29.75649 c 0,-4.29273 -2.19232,-8.85244 -4.71796,-9.81269 -5.19301,-1.97438 -12.45463,3.92422 -12.45463,10.11686 0,1.9248 0.60409,2.07047 8.5863,2.07047 8.33993,0 8.58629,-0.0681 8.58629,-2.37464 z"
       style="font-variation-settings:normal;opacity:1;vector-effect:none;fill:#c60000;fill-opacity:1;stroke-width:1.01015;stroke-linecap:butt;stroke-linejoin:miter;stroke-miterlimit:4;stroke-dasharray:none;stroke-dashoffset:0;stroke-opacity:1;stop-color:#000000;stop-opacity:1" />
    <path
       transform="scale(0.26458333)"
       id="path888"
       d="m 449.14454,683.46206 c -4.53111,-2.76262 -5.27812,-5.39833 -5.27812,-18.62308 0,-15.64434 -0.49186,-17.73818 -4.16688,-17.73818 -2.80662,0 -2.90419,-0.16753 -2.90419,-4.98676 0,-4.88772 0.0652,-4.99304 3.283,-5.3033 3.13792,-0.30255 3.29644,-0.52464 3.58725,-5.02577 0.28728,-4.44662 0.52783,-4.7987 4.31359,-6.31345 2.20513,-0.88233 4.4547,-1.60422 4.99904,-1.60422 0.54468,0 0.98972,2.95251 0.98972,6.56599 v 6.56599 h 5.55583 5.55584 v 5.05076 5.05076 h -5.55584 -5.55583 v 12.62691 c 0,11.385 0.20378,12.8307 2.07197,14.69888 1.14289,1.14289 2.84149,1.84384 3.78807,1.5632 6.78904,-2.01277 6.98116,-1.96636 7.69903,1.86021 0.87479,4.66307 0.51638,5.13889 -4.89785,6.5022 -6.44515,1.62291 -9.71708,1.40693 -13.48463,-0.89014 z"
       style="font-variation-settings:normal;opacity:1;vector-effect:none;fill:#c60000;fill-opacity:1;stroke-width:1.01015;stroke-linecap:butt;stroke-linejoin:miter;stroke-miterlimit:4;stroke-dasharray:none;stroke-dashoffset:0;stroke-opacity:1;stop-color:#000000;stop-opacity:1" />
    <path
       transform="scale(0.26458333)"
       id="path890"
       d="m 489.20719,684.09297 c -10.0265,-3.58307 -14.29187,-10.4026 -14.29187,-22.85003 0,-9.24546 2.35847,-15.25296 7.89733,-20.11615 9.16472,-8.04673 24.16475,-5.79008 29.14887,4.38525 1.13485,2.31685 2.12606,6.99374 2.40569,11.35088 l 0.47557,7.41048 H 500.5678 c -13.48689,0 -14.27497,0.10891 -14.27497,1.97277 0,3.3687 2.28991,7.20614 5.19726,8.70959 3.65141,1.88822 10.30471,1.83289 14.07547,-0.11704 3.56795,-1.84506 4.42338,-1.46754 5.83223,2.57388 0.92826,2.6628 0.78347,3.21636 -1.16323,4.4471 -2.37767,1.50322 -11.48199,3.65577 -15.15262,3.58256 -1.22272,-0.0244 -3.86635,-0.63156 -5.87475,-1.34929 z m 14.25823,-29.46619 c 0,-3.63492 -2.73882,-8.49335 -5.32783,-9.45108 -1.20537,-0.4459 -3.34077,-0.50485 -4.74533,-0.131 -3.02478,0.8051 -7.09943,6.41918 -7.09943,9.78163 0,2.30821 0.24497,2.376 8.58629,2.376 8.52988,0 8.5863,-0.0169 8.5863,-2.57555 z"
       style="font-variation-settings:normal;opacity:1;vector-effect:none;fill:#c60000;fill-opacity:1;stroke-width:1.01015;stroke-linecap:butt;stroke-linejoin:miter;stroke-miterlimit:4;stroke-dasharray:none;stroke-dashoffset:0;stroke-opacity:1;stop-color:#000000;stop-opacity:1" />
    <path
       transform="scale(0.26458333)"
       id="path892"
       d="m 535.28523,682.58675 c -7.54428,-4.68556 -10.90871,-11.44484 -10.87527,-21.84889 0.0348,-10.82076 3.76933,-17.81599 11.6914,-21.89929 7.87539,-4.05924 22.8635,-2.19802 22.11946,2.74679 -0.16385,1.08895 -0.75823,3.16 -1.32083,4.60233 l -1.02292,2.62242 -3.97534,-1.96684 c -5.04231,-2.49474 -10.42835,-1.47893 -13.42257,2.53151 -4.34901,5.82503 -2.7842,22.24603 2.38345,25.01167 2.54187,1.36037 9.41407,1.25872 12.58523,-0.18616 3.1524,-1.43633 4.55766,-0.34851 4.85856,3.76103 0.1757,2.39955 -0.39768,3.20341 -3.3232,4.65899 -4.96736,2.4715 -15.69397,2.45323 -19.69797,-0.0335 z"
       style="font-variation-settings:normal;opacity:1;vector-effect:none;fill:#c60000;fill-opacity:1;stroke-width:1.01015;stroke-linecap:butt;stroke-linejoin:miter;stroke-miterlimit:4;stroke-dasharray:none;stroke-dashoffset:0;stroke-opacity:1;stop-color:#000000;stop-opacity:1" />
    <path
       transform="scale(0.26458333)"
       id="path894"
       d="m 578.21671,683.77748 c -4.95007,-2.55715 -5.93622,-6.29998 -6.0039,-22.78708 -0.0534,-12.99894 -0.18127,-13.8896 -1.9947,-13.8896 -4.14318,0 -5.13338,-1.09253 -5.13338,-5.66391 0,-4.39812 0.0315,-4.43761 3.53553,-4.43761 h 3.53553 v -4.91353 c 0,-4.85601 0.0507,-4.93286 4.32692,-6.56599 2.37981,-0.90885 4.65265,-1.65246 5.05077,-1.65246 0.39811,0 0.72384,2.95469 0.72384,6.56599 v 6.56599 h 6.06091 6.06092 v 4.41942 c 0,4.14162 -0.19842,4.4591 -3.15673,5.05076 -1.7362,0.34724 -4.51848,0.63134 -6.18286,0.63134 h -3.02613 l 0.48179,12.37437 c 0.26499,6.80591 0.80958,13.13472 1.2102,14.06403 1.07331,2.48972 3.46858,3.05696 7.41239,1.75538 4.01513,-1.32511 5.23988,-0.31388 5.26618,4.3481 0.0191,3.38385 -2.07206,4.6029 -9.22222,5.37619 -4.10696,0.44416 -6.26085,0.14525 -8.94506,-1.24139 z"
       style="font-variation-settings:normal;opacity:1;vector-effect:none;fill:#c60000;fill-opacity:1;stroke-width:1.01015;stroke-linecap:butt;stroke-linejoin:miter;stroke-miterlimit:4;stroke-dasharray:none;stroke-dashoffset:0;stroke-opacity:1;stop-color:#000000;stop-opacity:1" />
    <path
       transform="scale(0.26458333)"
       id="path896"
       d="m 614.97001,682.5982 c -8.22169,-3.84097 -12.00732,-12.01607 -11.29136,-24.3838 0.83101,-14.35533 7.73323,-21.47169 20.89901,-21.54741 7.68683,-0.0442 11.42675,1.53816 16.03189,6.78312 8.54336,9.73035 6.25908,30.95128 -4.06727,37.78494 -5.43407,3.59609 -15.43928,4.22832 -21.57227,1.36315 z m 15.282,-8.88511 c 0.91959,-0.91959 2.08848,-2.76745 2.59754,-4.10637 1.40783,-3.70289 1.10495,-15.07037 -0.50416,-18.92152 -2.48906,-5.95715 -8.4977,-7.39536 -13.37381,-3.2011 -2.46598,2.12114 -2.84206,3.24807 -3.20042,9.59001 -0.76055,13.45998 1.58147,18.31097 8.84041,18.31097 2.34601,0 4.65203,-0.68357 5.64044,-1.67199 z"
       style="font-variation-settings:normal;opacity:1;vector-effect:none;fill:#c60000;fill-opacity:1;stroke-width:1.01015;stroke-linecap:butt;stroke-linejoin:miter;stroke-miterlimit:4;stroke-dasharray:none;stroke-dashoffset:0;stroke-opacity:1;stop-color:#000000;stop-opacity:1" />
    <path
       transform="scale(0.26458333)"
       id="path898"
       d="m 657.00861,660.23279 v -23.23351 h 5.55584 5.55584 l 0.0336,4.29315 0.0336,4.29315 2.09854,-2.52539 c 3.4561,-4.15905 7.14743,-6.04717 11.83626,-6.05426 l 4.40557,-0.007 -0.67135,3.78807 c -1.26642,7.14563 -1.40775,7.32361 -5.81578,7.32361 -2.3964,0 -5.52235,0.87544 -7.50807,2.10269 l -3.40223,2.10269 v 15.57498 15.57498 h -6.06092 -6.06091 z"
       style="font-variation-settings:normal;opacity:1;vector-effect:none;fill:#c60000;fill-opacity:1;stroke-width:1.01015;stroke-linecap:butt;stroke-linejoin:miter;stroke-miterlimit:4;stroke-dasharray:none;stroke-dashoffset:0;stroke-opacity:1;stop-color:#000000;stop-opacity:1" />
  </g>
</svg>
